<svg xmlns="http://www.w3.org/2000/svg" fill-rule="evenodd" stroke-linejoin="round" stroke-miterlimit="2" clip-rule="evenodd" viewBox="0 0 64 64" id="calendar-checklist">
  <g transform="translate(-2348 -8)">
    <path d="M2410,30L2350,30L2350,60.711C2350,64.771 2353.04,68.187 2357.07,68.658C2357.08,68.658 2357.08,68.658 2357.08,68.658C2364.72,69.527 2372.36,70 2380,70C2387.64,70 2395.28,69.527 2402.92,68.656C2402.92,68.656 2402.93,68.655 2402.93,68.655C2406.96,68.185 2410,64.77 2410,60.712C2410,53.365 2410,39.863 2410,30ZM2384,36L2372,36C2368.69,36 2366,38.686 2366,42C2366,45.486 2366,50.514 2366,54C2366,55.591 2366.63,57.117 2367.76,58.243C2368.88,59.368 2370.41,60 2372,60L2384,60C2387.31,60 2390,57.314 2390,54C2390,53.789 2390,53 2390,53C2390,51.896 2389.1,51 2388,51C2386.9,51 2386,51.896 2386,53C2386,53 2386,53.789 2386,54C2386,55.105 2385.11,56 2384,56L2372,56C2371.47,56 2370.96,55.789 2370.59,55.414C2370.21,55.039 2370,54.53 2370,54C2370,50.514 2370,45.486 2370,42C2370,40.895 2370.89,40 2372,40C2372,40 2384,40 2384,40C2385.1,40 2386,39.104 2386,38C2386,36.896 2385.1,36 2384,36ZM2373.59,46.414L2379.59,52.414C2380.37,53.195 2381.63,53.195 2382.41,52.414L2394.41,40.414C2395.2,39.634 2395.2,38.366 2394.41,37.586C2393.63,36.805 2392.37,36.805 2391.59,37.586L2381,48.172C2381,48.172 2376.41,43.586 2376.41,43.586C2375.63,42.805 2374.37,42.805 2373.59,43.586C2372.8,44.366 2372.8,45.634 2373.59,46.414ZM2391,16L2369,16L2369,15C2369,14.448 2369.45,14 2370,14C2371.1,14 2372,13.104 2372,12C2372,10.896 2371.1,10 2370,10C2367.24,10 2365,12.239 2365,15L2365,16L2358,16C2353.58,16 2350,19.582 2350,24L2350,26L2410,26L2410,24C2410,19.582 2406.42,16 2402,16L2395,16L2395,15C2395,12.239 2392.76,10 2390,10C2388.9,10 2388,10.896 2388,12C2388,13.104 2388.9,14 2390,14C2390.55,14 2391,14.448 2391,15L2391,16Z"></path>
  </g>
</svg>
